<?xml version="1.0" standalone="no"?>
<!DOCTYPE svg PUBLIC "-//W3C//DTD SVG 20010904//EN"
 "http://www.w3.org/TR/2001/REC-SVG-20010904/DTD/svg10.dtd">
<svg version="1.0" xmlns="http://www.w3.org/2000/svg"
 width="100.000000pt" height="100.000000pt" viewBox="0 0 100.000000 100.000000"
 preserveAspectRatio="xMidYMid meet">
<metadata>
Created by potrace 1.14, written by Peter Selinger 2001-2017
</metadata>
<g transform="translate(0.000000,100.000000) scale(0.100000,-0.100000)"
fill="#000000" stroke="none">
<path d="M388 984 c-251 -60 -421 -311 -380 -556 37 -219 201 -383 420 -420
318 -54 618 246 564 565 -49 289 -327 479 -604 411z m292 -81 c118 -54 203
-151 241 -274 22 -72 24 -89 6 -89 -8 0 -22 31 -34 73 -53 179 -209 297 -393
297 -183 0 -340 -119 -393 -297 -12 -42 -26 -73 -34 -73 -17 0 -16 15 3 81 42
143 148 253 292 300 89 30 226 22 312 -18z m-178 -53 c2 -28 0 -40 -9 -40 -7
0 -12 5 -10 12 1 6 -6 14 -16 16 -15 3 -18 0 -12 -17 4 -14 2 -21 -7 -21 -8 0
-13 14 -13 40 -1 22 3 40 7 40 4 0 8 -7 8 -16 0 -9 6 -14 13 -11 6 2 11 12 11
21 -1 9 4 16 11 16 8 0 14 -16 17 -40z m119 20 c11 0 9 -69 -3 -76 -5 -3 -20
-3 -33 0 -23 6 -23 7 -9 36 9 16 12 35 8 42 -5 8 -2 9 10 5 10 -4 22 -7 27 -7z
m-221 -17 c0 -16 -2 -16 -11 -3 -8 12 -10 10 -6 -10 2 -14 6 -31 8 -39 2 -7
-2 -16 -10 -19 -8 -2 -11 0 -7 6 3 6 1 23 -6 37 -10 23 -13 24 -18 9 -6 -16
-7 -16 -13 0 -5 12 0 19 16 26 34 14 47 12 47 -7z m330 -43 c0 -17 -14 -18
-26 -2 -7 9 -16 13 -21 8 -4 -5 -2 -11 5 -13 20 -8 14 -22 -8 -16 -11 3 -20 0
-20 -6 0 -10 14 -15 33 -12 4 0 7 -3 7 -9 0 -15 -22 -12 -47 5 -22 16 -22 16
-3 35 11 11 20 27 20 36 0 13 4 13 30 -3 17 -9 30 -20 30 -23z m-401 -56 c-6
-8 -17 -14 -25 -14 -16 0 -57 57 -46 64 5 3 15 -6 22 -19 7 -14 19 -25 27 -25
19 0 16 17 -6 39 -13 13 -16 22 -8 30 16 16 52 -56 36 -75z m267 9 c71 -24
147 -103 170 -176 l18 -57 84 0 c83 0 84 0 77 -22 -4 -13 -7 -32 -7 -43 0 -11
3 -30 7 -42 7 -21 4 -23 -27 -23 -32 0 -36 -3 -57 -55 -67 -161 -250 -262
-423 -234 -126 20 -251 118 -299 234 -21 52 -25 55 -57 55 -31 0 -34 2 -27 23
9 28 9 56 0 85 -7 22 -6 22 77 22 l84 0 18 57 c23 71 100 152 166 176 60 21
135 21 196 0z m174 -29 l-10 -29 19 22 c16 20 21 21 31 8 10 -12 10 -15 -2
-15 -8 0 -23 -9 -33 -20 -24 -27 -38 -25 -29 3 4 12 9 29 11 37 3 9 -4 5 -15
-7 -17 -20 -22 -21 -32 -8 -10 12 -10 15 2 15 8 0 23 9 33 20 24 27 39 11 25
-26z m-512 14 c34 -34 -6 -90 -48 -68 -35 19 -20 80 20 80 9 0 21 -5 28 -12z
m596 -95 c5 -17 1 -26 -19 -39 -24 -16 -27 -16 -45 1 -28 25 -25 39 13 57 35
17 41 15 51 -19z m-679 17 c3 -5 14 -10 25 -10 23 0 32 -23 17 -44 -11 -16
-15 -16 -45 -1 -33 17 -36 23 -26 49 7 18 20 21 29 6z m-45 -345 c40 -83 111
-154 197 -197 64 -31 74 -33 173 -33 99 0 109 2 173 33 86 43 157 114 197 197
17 36 37 65 45 65 35 0 -47 -152 -114 -213 -173 -156 -429 -156 -602 0 -67 61
-149 213 -114 213 8 0 28 -29 45 -65z"/>
<path d="M600 850 c0 -5 5 -10 10 -10 6 0 10 5 10 10 0 6 -4 10 -10 10 -5 0
-10 -4 -10 -10z"/>
<path d="M590 815 c0 -8 5 -15 10 -15 6 0 10 7 10 15 0 8 -4 15 -10 15 -5 0
-10 -7 -10 -15z"/>
<path d="M446 729 c-89 -21 -156 -91 -177 -183 -22 -100 31 -209 125 -259 63
-33 157 -30 219 6 92 54 138 155 116 257 -27 125 -159 209 -283 179z m54 -120
c0 -30 -17 -39 -26 -15 -13 33 -74 29 -74 -4 0 -13 11 -22 36 -29 72 -20 95
-70 53 -112 -15 -15 -28 -19 -47 -14 -15 3 -37 6 -49 6 -20 -1 -23 4 -23 34 0
40 20 47 35 13 12 -28 47 -35 64 -14 18 22 8 42 -26 50 -65 16 -87 50 -63 97
9 15 21 19 65 18 54 -2 55 -2 55 -30z m102 -56 c20 -18 24 -53 8 -69 -8 -8 -6
-15 5 -24 19 -15 19 -50 1 -75 -16 -22 -129 -35 -140 -16 -4 6 0 14 8 17 9 4
16 18 16 34 0 16 5 32 10 35 17 11 11 61 -11 89 l-20 26 52 0 c35 0 59 -6 71
-17z"/>
<path d="M530 510 c0 -23 5 -30 19 -30 24 0 45 25 37 45 -3 8 -17 15 -31 15
-21 0 -25 -5 -25 -30z"/>
<path d="M530 424 c0 -32 2 -35 26 -32 56 6 53 68 -2 68 -21 0 -24 -5 -24 -36z"/>
<path d="M150 480 c-22 -22 -13 -50 15 -50 28 0 37 29 16 50 -14 13 -18 13
-31 0z"/>
<path d="M820 480 c-22 -22 -13 -50 15 -50 28 0 37 29 16 50 -14 13 -18 13
-31 0z"/>
<path d="M257 324 c-3 -4 -3 -20 0 -37 5 -27 4 -30 -13 -23 -14 5 -16 4 -7 -5
17 -17 36 0 30 27 -5 30 8 41 22 17 6 -10 11 -13 11 -7 0 11 -20 34 -30 34 -4
0 -9 -3 -13 -6z"/>
<path d="M710 315 c-18 -22 -2 -37 31 -30 18 4 29 3 29 -4 0 -6 -7 -11 -15
-11 -8 0 -15 -4 -15 -10 0 -15 16 -12 30 5 18 21 2 38 -31 31 -31 -6 -37 2
-17 22 7 7 9 12 6 12 -3 0 -11 -7 -18 -15z"/>
<path d="M297 263 c-4 -3 -7 -17 -7 -29 0 -28 30 -47 51 -33 12 8 12 10 -1 8
-30 -3 -40 1 -40 19 0 10 5 23 12 30 7 7 8 12 2 12 -6 0 -14 -3 -17 -7z"/>
<path d="M347 250 c9 -11 19 -17 21 -15 6 6 -18 35 -29 35 -5 0 -1 -9 8 -20z"/>
<path d="M647 264 c-3 -3 3 -14 13 -24 9 -9 19 -23 22 -30 3 -10 8 -10 25 0
20 13 21 40 2 40 -4 0 -6 -7 -3 -15 9 -24 -13 -17 -34 10 -11 13 -22 22 -25
19z"/>
<path d="M393 227 c0 -7 -3 -25 -7 -40 -4 -16 -2 -27 4 -27 5 0 9 5 8 12 -2 6
6 14 16 16 15 3 18 0 13 -17 -9 -36 7 -23 19 14 6 20 7 38 3 41 -5 3 -9 -2 -9
-11 0 -10 -7 -15 -17 -13 -11 2 -17 11 -15 21 2 9 -1 17 -6 17 -5 0 -9 -6 -9
-13z"/>
<path d="M582 228 c-28 -28 -1 -75 37 -63 25 8 34 31 21 56 -12 21 -40 25 -58
7z m48 -13 c10 -12 10 -18 0 -30 -25 -30 -61 -7 -46 30 3 8 12 15 19 15 8 0
20 -7 27 -15z"/>
<path d="M481 206 c-16 -20 -5 -53 20 -61 27 -9 51 13 47 44 -2 20 -9 27 -29
29 -14 2 -31 -4 -38 -12z m57 -24 c4 -28 -24 -41 -44 -20 -20 20 -7 50 20 46
13 -2 22 -12 24 -26z"/>
<path d="M205 730 c-10 -17 20 -44 40 -36 9 3 15 14 13 23 -4 21 -43 30 -53
13z"/>
<path d="M813 659 c-27 -10 -30 -27 -7 -36 19 -7 37 9 32 30 -2 11 -9 12 -25
6z"/>
<path d="M155 650 c-3 -5 -2 -10 4 -10 5 0 13 5 16 10 3 6 2 10 -4 10 -5 0
-13 -4 -16 -10z"/>
<path d="M190 635 c-10 -12 -10 -15 4 -15 9 0 16 7 16 15 0 8 -2 15 -4 15 -2
0 -9 -7 -16 -15z"/>
</g>
</svg>
